<svg width="195" height="48" viewBox="0 0 195 48" xmlns="http://www.w3.org/2000/svg"><title>logo-almac</title><g fill="none" fill-rule="evenodd"><path d="M56.54 23.68h-3.172v24.046h21.18v-2.652H56.54V23.68zm-22.298 0L20.433 47.634h3.545l2.893-5.028h18.567l2.892 5.028h3.546L38.16 23.68h-3.918zm-5.878 16.274l7.744-13.623 7.744 13.623H28.364zm140.978-.365v1.462c0 1.555-.373 2.652-1.12 3.292-.84.64-2.239.914-4.291.914h-9.797c-1.026 0-1.96-.091-2.8-.366-.839-.274-1.492-.822-1.958-1.554-.467-.731-.747-1.828-.747-3.2v-9.051c0-1.372.28-2.469.747-3.2.466-.732 1.12-1.28 1.959-1.555.84-.274 1.773-.365 2.799-.365h9.703c.933 0 1.866 0 2.706.183.84.182 1.4.548 1.96 1.188.466.64.746 1.554.746 2.926v1.097h2.799v-2.011c0-1.098-.187-2.103-.653-3.018-.467-.914-1.213-1.645-2.24-2.194-1.026-.548-2.519-.823-4.385-.823h-10.823c-2.052 0-3.732.366-4.945 1.006s-2.052 1.646-2.612 3.017c-.56 1.372-.746 3.017-.746 5.029v6.583c0 2.011.28 3.657.746 5.028.466 1.372 1.4 2.286 2.612 3.017 1.213.64 2.893 1.006 4.945 1.006h10.637c2.146 0 3.825-.274 4.945-.731 1.12-.549 1.959-1.28 2.332-2.286.373-1.006.653-2.194.56-3.657V39.68h-3.079v-.091zm-40.96-15.909l-13.808 24.046h3.546l2.892-5.029h18.567l2.892 5.029h3.546L132.208 23.68h-3.825zm-5.877 16.274l7.744-13.623 7.744 13.623h-15.488zm-27.71 3.84L81.264 23.68H76.32v24.046h3.172v-21.12h.093l14.182 21.12h2.24l14.088-21.12h.093v21.12h3.172V23.68h-4.945L94.794 43.794z" fill="#010101"/><path d="M.653 20.48C26.031 8.229 60.086.731 97.5.731c37.414 0 71.469 7.498 96.847 19.749C167.569 10.789 133.98 5.029 97.5 5.029S27.43 10.789.653 20.48" fill="#E5342C"/></g></svg>