<svg xmlns="http://www.w3.org/2000/svg" xmlns:xlink="http://www.w3.org/1999/xlink" viewBox="560 465 800 150"><defs><style>.cls-2{fill:url(#linear-gradient);}.cls-3{fill:url(#linear-gradient-2);}.cls-4{fill:url(#linear-gradient-3);}.cls-5{fill:url(#linear-gradient-9);}.cls-6{fill:url(#linear-gradient-11);}.cls-7{fill:url(#linear-gradient-12);}.cls-8{fill:url(#linear-gradient-13);}.cls-9{fill:url(#linear-gradient-17);}</style><linearGradient id="linear-gradient" x1="565.59" y1="511.07" x2="1365.93" y2="511.07" gradientUnits="userSpaceOnUse"><stop offset="0" stop-color="#1c1c43"/><stop offset="0.16" stop-color="#1c2045"/><stop offset="0.32" stop-color="#1e2b4a"/><stop offset="0.46" stop-color="#203e53"/><stop offset="0.61" stop-color="#245960"/><stop offset="0.76" stop-color="#287b71"/><stop offset="0.9" stop-color="#2da585"/><stop offset="1" stop-color="#32c896"/></linearGradient><linearGradient id="linear-gradient-2" x1="565.59" y1="510.87" x2="1365.93" y2="510.87" xlink:href="#linear-gradient"/><linearGradient id="linear-gradient-3" x1="565.59" y1="511.13" x2="1365.93" y2="511.13" xlink:href="#linear-gradient"/><linearGradient id="linear-gradient-9" x1="565.59" y1="511.02" x2="1365.93" y2="511.02" xlink:href="#linear-gradient"/><linearGradient id="linear-gradient-11" x1="697.53" y1="589.87" x2="1363.54" y2="589.87" xlink:href="#linear-gradient"/><linearGradient id="linear-gradient-12" x1="697.53" y1="589.81" x2="1363.54" y2="589.81" xlink:href="#linear-gradient"/><linearGradient id="linear-gradient-13" x1="697.53" y1="589.89" x2="1363.54" y2="589.89" xlink:href="#linear-gradient"/><linearGradient id="linear-gradient-17" x1="697.53" y1="602.04" x2="1363.54" y2="602.04" xlink:href="#linear-gradient"/></defs><path class="cls-2" d="M608.74,550.78q-21.93,0-31.18-10t-9.25-29.73q0-39.7,41.78-39.7,11.34,0,18.71,2.91a36.68,36.68,0,0,1,13.21,9l-14.87,14.87a25.79,25.79,0,0,0-7.38-5.31,23.59,23.59,0,0,0-9.77-1.76q-10.71,0-15.33,5T590,511.39q0,10.08,4.32,15.12t15.74,5a23.93,23.93,0,0,0,10.19-1.82,32.91,32.91,0,0,0,8.11-5.77l14.14,13.83a42.67,42.67,0,0,1-13.41,9.56Q621.53,550.79,608.74,550.78Z"/><path class="cls-3" d="M643.92,549.64l30.87-77.55h21.93l31.08,77.55H705.45l-3.84-10H668.76l-3.85,10ZM675.62,522h19.13l-9.57-24.53Z"/><path class="cls-4" d="M781.32,549.64l-14.24-25.57H749.83v25.57H733.2v-77h37.21a53.46,53.46,0,0,1,14.86,1.77,19.78,19.78,0,0,1,9.26,5.3,21,21,0,0,1,4.57,7.85,34.49,34.49,0,0,1,1.35,10.24q0,19.34-16.22,24.43l15.28,27.44Zm-31.49-40.23h20.06q7.17,0,10.29-2.34t3.12-8.68c0-4.36-1-7.33-3.07-8.88s-5.56-2.34-10.55-2.34H749.83Z"/><path class="cls-4" d="M810.11,549.64v-77h35.75q15.39,0,22.3,4.63t6.91,15.23q0,13.41-10.29,17,6.66,1.56,9.51,6.08t2.86,12.83q0,12.06-7.54,16.63t-24,4.58Zm16.73-46.26h19.65c4.29,0,7.26-.67,8.88-2s2.45-3.49,2.45-6.4-.83-4.78-2.5-6-4.61-1.87-8.83-1.87H826.84Zm0,32.12h20.79c4.37,0,7.5-.66,9.41-2s2.86-3.57,2.86-6.76-.94-5.42-2.81-6.7-5-1.93-9.46-1.93H826.84Z"/><path class="cls-4" d="M922.93,550.89q-40.23,0-40.23-39.82t40.23-39.7q40.32,0,40.33,39.7T922.93,550.89Zm-19.39-20.07q6,6.66,19.39,6.66t19.38-6.66q6-6.65,6-19.54t-6-19.44q-6-6.64-19.38-6.65t-19.39,6.65q-6,6.66-6,19.44T903.54,530.82Z"/><path class="cls-4" d="M972.69,549.64v-77h16l37.94,52.08V472.61h14.24v77h-13.51l-40.43-55.2v55.2Z"/><path class="cls-4" d="M1054.33,549.64v-77h13.73l26,62.27,26.09-62.27h13.52v77h-10.29V490.18l-25.16,59.46h-8.73l-25-59.35v59.35Z"/><path class="cls-3" d="M1141.43,549.64l30.87-77.55H1183l30.87,77.55h-10.81l-6.34-16.22h-38.46l-6.34,16.22Zm20.37-25.88H1193l-15.59-39.09Z"/><path class="cls-5" d="M1250.19,550.68q-18.51,0-31.91-8.84l4.16-6.23A50.62,50.62,0,0,0,1250,543.4q12,0,17.47-3.58c3.67-2.4,5.5-6.22,5.5-11.49a17.21,17.21,0,0,0-.36-3.64,7.41,7.41,0,0,0-1.35-3c-.66-.87-1.27-1.61-1.82-2.24a8.29,8.29,0,0,0-2.81-1.81c-1.31-.59-2.39-1-3.22-1.36a34.55,34.55,0,0,0-4.05-1.09c-1.87-.41-3.31-.73-4.32-.93s-2.68-.52-5-.94c-4-.69-7.08-1.31-9.41-1.87a57,57,0,0,1-7.48-2.39,17.49,17.49,0,0,1-6.08-3.64,16.34,16.34,0,0,1-3.48-5.46,20.53,20.53,0,0,1-1.41-7.95q0-10.91,6.92-15.8t20.94-4.88q16.74,0,26.82,6.86l-4.37,6.65q-9.14-6-22.45-6-10.39,0-15.07,3.07t-4.68,9.92a11,11,0,0,0,1,5,11.18,11.18,0,0,0,2.55,3.43,14.14,14.14,0,0,0,4.62,2.5,42,42,0,0,0,5.88,1.71q2.75.58,7.64,1.51l6.13,1.14c1.45.28,3.26.68,5.4,1.2a31.43,31.43,0,0,1,5.1,1.61c1.25.56,2.63,1.23,4.16,2a11.84,11.84,0,0,1,3.53,2.65,27.08,27.08,0,0,1,2.44,3.38,13.49,13.49,0,0,1,1.72,4.47A28.32,28.32,0,0,1,1281,528q0,11.54-7.54,17.1T1250.19,550.68Z"/><path class="cls-4" d="M1291.09,549.64v-77h5.51v34h49.69v-34h5.4v77h-5.4V511.7H1296.6v37.94Z"/><path class="cls-6" d="M984.53,602.27q-11.85,0-11.84-12.4,0-6.2,3.08-9.3t8.89-3.1a11.72,11.72,0,0,1,8.41,3l-1.82,1.82a9.52,9.52,0,0,0-6.62-2.41q-9.37,0-9.38,10t9.41,10a10.41,10.41,0,0,0,4-.65,9.65,9.65,0,0,0,2.79-1.82l1.79,1.72A11.92,11.92,0,0,1,984.53,602.27Z"/><path class="cls-7" d="M1001.56,601.91l9.64-24.21h2.57l9.64,24.21h-2.6l-2.2-5.55h-12.34l-2.18,5.55Zm5.59-7.88h10.55l-5.26-13.25Z"/><path class="cls-8" d="M1048.27,601.91l-5.75-9.8h-7.17v9.8h-2.5v-24h10.39q4.18,0,6.15,1.72t2,5.32q0,6.3-6.17,7.11l5.81,9.9Zm-12.92-12.14h7.92a6.78,6.78,0,0,0,4.12-1c.93-.71,1.4-1.94,1.4-3.72s-.46-3-1.38-3.72a7,7,0,0,0-4.24-1h-7.82Z"/><path class="cls-8" d="M1061.71,601.91v-24h10.45q3.93,0,5.79,1.44a5.21,5.21,0,0,1,1.87,4.4,7,7,0,0,1-.86,3.59,4.11,4.11,0,0,1-2.45,2c2.6.65,3.9,2.66,3.9,6,0,2.38-.7,4.09-2.1,5.11s-3.53,1.54-6.41,1.54Zm2.5-13.63h8c1.86,0,3.15-.37,3.89-1.12a4.25,4.25,0,0,0,1.1-3.13,3.48,3.48,0,0,0-1.18-2.88,6.12,6.12,0,0,0-3.81-.95h-8Zm0,11.33h8a6.89,6.89,0,0,0,4.32-1.09,4.19,4.19,0,0,0,1.36-3.49,4,4,0,0,0-1.38-3.36,7.23,7.23,0,0,0-4.36-1h-7.89Z"/><path class="cls-8" d="M1101.42,602.3q-12.08,0-12.08-12.43t12.08-12.4q12.13,0,12.14,12.4T1101.42,602.3Zm0-2.37q9.57,0,9.57-10t-9.57-10q-9.53,0-9.52,10T1101.42,599.93Z"/><path class="cls-8" d="M1123.77,601.91v-24h2.8L1141,597.69V577.86h2.46v24h-2.33l-14.84-20.42v20.42Z"/><path class="cls-9" d="M1150.89,605.78l-.71-1.33a4.61,4.61,0,0,0,1.43-1.07,2.49,2.49,0,0,0,.36-1.47h-1.63v-3.6h3.25V601a6.45,6.45,0,0,1-.52,3A4.84,4.84,0,0,1,1150.89,605.78Z"/><path class="cls-8" d="M1177.22,601.91V580.29h-9v-2.43h20.61v2.43h-9v21.62Z"/><path class="cls-7" d="M1192.94,601.91l9.64-24.21h2.57l9.64,24.21h-2.6l-2.21-5.55h-12.33l-2.18,5.55Zm5.59-7.88h10.55l-5.26-13.25Z"/><path class="cls-6" d="M1233.81,602.27q-11.85,0-11.85-12.4,0-6.2,3.09-9.3c2-2.07,5-3.1,8.89-3.1a11.72,11.72,0,0,1,8.41,3l-1.82,1.82a9.52,9.52,0,0,0-6.62-2.41q-9.37,0-9.38,10t9.41,10a10.41,10.41,0,0,0,4-.65,9.79,9.79,0,0,0,2.79-1.82l1.78,1.72A11.88,11.88,0,0,1,1233.81,602.27Z"/><path class="cls-8" d="M1268.17,601.91l-8.61-12.75-4.8,5.26v7.49h-2.5v-24h2.5v13.28l12.17-13.28h3l-8.64,9.45,9.81,14.6Z"/><path class="cls-8" d="M1280.69,601.91v-24h2.57v21.72h12.79v2.33Z"/><path class="cls-8" d="M1305.51,601.91v-24h15.91v2.43h-13.34v8h13v2.4h-13v8.93h13.47v2.33Z"/><path class="cls-8" d="M1331.5,601.91v-24h7.86c4.58,0,7.79.86,9.6,2.58s2.73,4.86,2.73,9.43-1,7.61-2.92,9.38-5.23,2.66-9.84,2.66Zm2.56-2.33h5q5.65,0,7.87-2.16t2.23-7.55q0-5.52-2-7.56t-7.71-2h-5.33Z"/></svg>
